<svg xmlns="http://www.w3.org/2000/svg" xmlns:xlink="http://www.w3.org/1999/xlink" style="width: 0; height: 0; visibility: hidden; position: absolute;" aria-hidden="true"><symbol  viewBox='0 0 24 24' id='basket'>
    <path d="M22.2 7.5h-1.3L14.1.2a.8.8 0 00-1.1 0 .9.9 0 000 1.2l5.7 6H5.3l5.7-6a.9.9 0 000-1.2.8.8 0 00-1.1 0L3 7.4H1.8a1.9 1.9 0 00-1.8 2v1a1.9 1.9 0 001.7 2L3.2 22a2.4 2.4 0 002.3 2h13.2a2.4 2.4 0 002.4-2.1l1.2-9.5a1.9 1.9 0 001.7-2v-1a1.9 1.9 0 00-1.8-2zm.2 3a.3.3 0 01-.2.2h-7.8a.8.8 0 000 1.7h6.3l-1.2 9.2a.8.8 0 01-.8.7H5.5a.8.8 0 01-.8-.7l-1.4-9.2h6.4a.8.8 0 000-1.6H1.8a.3.3 0 01-.2-.3V9.4a.3.3 0 01.2-.3h20.4a.3.3 0 01.2.3z"></path><path d="M7.3 14a.8.8 0 00-.8.9v5a.8.8 0 101.6 0v-5a.8.8 0 00-.8-.8zm4.7 0a.8.8 0 00-.8.9v5a.8.8 0 101.6 0v-5a.8.8 0 00-.8-.8zm4.7 0a.8.8 0 00-.8.9v5a.8.8 0 101.6 0v-5a.8.8 0 00-.8-.8z"></path>
  </symbol><symbol  viewBox='0 0 24 24' id='heart'>
    <path d="M12 24a1.4 1.4 0 01-1-.4L8.4 21a53.8 53.8 0 01-6-6.3A10.8 10.8 0 010 8a9.1 9.1 0 011.9-5.8A6.2 6.2 0 016.7 0a5.7 5.7 0 013.8 1.5A8.4 8.4 0 0112 3.3a8.4 8.4 0 011.5-1.8A5.7 5.7 0 0117.3 0a6.2 6.2 0 014.8 2.4A9.1 9.1 0 0124 8a10.8 10.8 0 01-2.4 6.6 53.8 53.8 0 01-6 6.3L13 23.6a1.4 1.4 0 01-.9.4zM6.7 1.6a4.8 4.8 0 00-3.8 1.8 7.4 7.4 0 00-1.5 4.7 9 9 0 002 5.6 53 53 0 005.8 6l2.8 2.7 2.7-2.7a53 53 0 005.8-6 9 9 0 002-5.6 7.4 7.4 0 00-1.4-4.7 4.8 4.8 0 00-3.8-1.8 4.4 4.4 0 00-3 1.1 7.6 7.6 0 00-1.5 2.1.8.8 0 01-1.6 0 7.6 7.6 0 00-1.6-2 4.4 4.4 0 00-2.9-1.2z"></path>
  </symbol><symbol  viewBox='0 0 24 24' id='search'>
    <path d="M23.8 22.7l-6.2-6.1a9.8 9.8 0 002.6-6.7A10 10 0 0010.1 0 10 10 0 000 10a10 10 0 0010.1 9.9 10.1 10.1 0 006.3-2.3l6.3 6.2a.8.8 0 001 0 .8.8 0 000-1.1zM10 18.3A8.5 8.5 0 011.5 10a8.5 8.5 0 018.6-8.4 8.5 8.5 0 018.5 8.4 8.5 8.5 0 01-8.5 8.4z" data-name="4"></path>
  </symbol><symbol  viewBox='0 0 24 24' id='user'>
    <path d="M20.5 15.5a12.2 12.2 0 00-4.6-2.9 7 7 0 10-7.8 0 12.2 12.2 0 00-4.6 3A12 12 0 000 24h1.9A10.1 10.1 0 0122 24h2a12 12 0 00-3.5-8.5zM12 12a5 5 0 115-5 5 5 0 01-5 5z"></path>
  </symbol></svg>