<svg xmlns="http://www.w3.org/2000/svg" xmlns:xlink="http://www.w3.org/1999/xlink" style="width: 0; height: 0; visibility: hidden; position: absolute;" aria-hidden="true"><symbol  viewBox='0 0 24 24' id='facebook'>
    <path d="M12 0a12 12 0 1012 12A12 12 0 0012 0zm4.2 8h-1.8c-1 0-1.4.6-1.4 1.7V11h3.1l-.4 3H13v8h-1a10.1 10.1 0 01-2-.1V14H7v-3h3V9.4c0-3 1.5-4.4 4-4.4a14.8 14.8 0 012.2.1z"></path>
  </symbol><symbol  viewBox='0 0 24 24' id='instagram'>
    <path d="M14.3 12A2.3 2.3 0 1112 9.7a2.3 2.3 0 012.3 2.3z"></path><path d="M17.4 8A2.2 2.2 0 0016 6.5a3.6 3.6 0 00-1.3-.2H9.2a3.6 3.6 0 00-1.3.2A2.2 2.2 0 006.6 8a3.6 3.6 0 00-.2 1.3v5.6a3.6 3.6 0 00.2 1.3A2.2 2.2 0 008 17.4a3.6 3.6 0 001.3.2h5.6a3.6 3.6 0 001.3-.2 2.3 2.3 0 001.3-1.3 3.6 3.6 0 00.2-1.3V9.2a3.6 3.6 0 00-.2-1.3zM12 15.4a3.5 3.5 0 113.5-3.5 3.5 3.5 0 01-3.5 3.5zM15.7 9a.8.8 0 010-1.6.8.8 0 010 1.6z"></path><path d="M12 0a12 12 0 1012 12A12 12 0 0012 0zm6.8 14.8a5 5 0 01-.3 1.7 3.5 3.5 0 01-2 2 5 5 0 01-1.6.3H9.2a5 5 0 01-1.7-.3 3.6 3.6 0 01-2-2 5 5 0 01-.3-1.7V9.2a5 5 0 01.3-1.7 3.6 3.6 0 012-2 5 5 0 011.7-.3h5.7a5 5 0 011.6.3 3.6 3.6 0 012 2 5 5 0 01.4 1.7v5.6z"></path>
  </symbol><symbol  viewBox='0 0 24 24' id='pinterest'>
    <path d="M12 0a12 12 0 1012 12A12 12 0 0012 0zm1.4 16a3 3 0 01-2.5-1.3l-.8 2.8A11 11 0 018.3 21a.1.1 0 01-.3 0 11.2 11.2 0 010-4l1.4-5.6A4 4 0 019 9.7C9 8.2 10 7 11 7a1.4 1.4 0 011.4 1.6 22 22 0 01-1 3.6 1.6 1.6 0 001.7 2c2 0 3.2-2.5 3.2-5.4 0-2.3-1.5-4-4.2-4a4.9 4.9 0 00-5.1 5 3 3 0 00.7 2 .5.5 0 01.1.5l-.2.8a.3.3 0 01-.5.3c-1.5-.6-2.1-2.2-2.1-4C5 6.6 7.5 3 12.4 3c4 0 6.6 3 6.6 6 0 4-2.2 7-5.5 7z"></path>
  </symbol><symbol  viewBox='0 0 24 24' id='twitter'>
    <path d="M12 0a12 12 0 1012 12A12 12 0 0012 0zm5.5 9.4v.3a7.8 7.8 0 01-7.9 7.8 7.8 7.8 0 01-4.2-1.2 4.7 4.7 0 00.7 0 5.5 5.5 0 003.4-1.2 2.8 2.8 0 01-2.6-1.9 3 3 0 00.5 0 3 3 0 00.8 0A2.8 2.8 0 016 10.5a2.7 2.7 0 001.3.3A2.8 2.8 0 016 8.6a2.8 2.8 0 01.4-1.4A7.8 7.8 0 0012 10a2.6 2.6 0 010-.6 2.8 2.8 0 012.8-2.8 2.7 2.7 0 012 1 5.3 5.3 0 001.7-.8 2.7 2.7 0 01-1.2 1.6 5.2 5.2 0 001.6-.5 5.6 5.6 0 01-1.4 1.5z"></path>
  </symbol></svg>