<svg xmlns="http://www.w3.org/2000/svg" xmlns:xlink="http://www.w3.org/1999/xlink"
width="24" height="240">
<defs>
   <g id="clock">
   <path d="M22 5.72l-4.6-3.86-1.29 1.53 4.6 3.86L22 5.72zM7.88 3.39L6.6 1.86 2 5.71l1.29 1.53 4.59-3.85zM12.5 8H11v6l4.75 2.85.75-1.23-4-2.37V8zM12 4c-4.97 0-9 4.03-9 9s4.02 9 9 9c4.97 0 9-4.03 9-9s-4.03-9-9-9zm0 16c-3.87 0-7-3.13-7-7s3.13-7 7-7 7 3.13 7 7-3.13 7-7 7z"></path>
	</g>
    <g id="fb">
    <path d="M12,0A12,12,0,1,0,24,12,12,12,0,0,0,12,0Zm0,22.13A10.13,10.13,0,1,1,22.13,12,10.12,10.12,0,0,1,12,22.13Z"/><path d="M14.85,10.16H12.76V8.64c0-.47.48-.58.71-.58h1.35V6H13.27a2.37,2.37,0,0,0-2.59,2.52v1.65H9.15v2.12h1.53V18h2.08V12.28h1.77Z"/>
    </g>
    <g id="gp">
        <path d="M12,0A12,12,0,1,0,24,12,12,12,0,0,0,12,0Zm0,22.13A10.13,10.13,0,1,1,22.13,12,10.12,10.12,0,0,1,12,22.13Z"/><path d="M13,6.37A4.3,4.3,0,0,0,13.62,6H9.72a3.21,3.21,0,0,0-3,3C6.76,11,9,11.48,9.83,11.44A1,1,0,0,0,10,12.78c.24.26.19.35-.1.35S6,13.16,6,15.76s4.82,2.78,6.4,1.38a2.61,2.61,0,0,0,0-4.2c-1.22-.87-1.68-1.28-.9-2a3.06,3.06,0,0,0,1.4-2.54,2.41,2.41,0,0,0-1.06-1.94A2.32,2.32,0,0,0,13,6.37Zm-.6,9.25c0,1.12-1,1.66-2.56,1.66s-2.48-.81-2.48-2,1.18-1.8,3.38-1.8C11.36,13.94,12.43,14.5,12.43,15.62Zm-2.33-4.69c-1.94,0-2.83-4.54-.54-4.54C11.33,6.32,12.67,10.93,10.09,10.93ZM16.54,7.5V6h-.76V7.5H14.28v.77h1.49V9.75h.76V8.27H18V7.5H16.54Z"/>
    </g>
    <g id="ln">
    <path d="M12,0A12,12,0,1,0,24,12,12,12,0,0,0,12,0Zm0,22.63A10.63,10.63,0,1,1,22.63,12,10.64,10.64,0,0,1,12,22.63Z"/><path d="M8.57,9.24a.69.69,0,0,0-.69.69V15.6a.69.69,0,1,0,1.37,0V9.92A.69.69,0,0,0,8.57,9.24Z"/><path d="M8.57,6a.69.69,0,1,0,.49.2A.69.69,0,0,0,8.57,6Z"/><path d="M14.5,9.77a3.28,3.28,0,0,0-1.93.62V9.92a.69.69,0,0,0-1.37,0V15.6a.69.69,0,1,0,1.37,0V13.07a1.93,1.93,0,0,1,3.85,0v2.68a.69.69,0,1,0,1.37,0V13.07A3.3,3.3,0,0,0,14.5,9.77Z"/>
    </g>
    <g id="tw">
    <path d="M17.15,9.61c0-.12,0-.24,0-.36a5.45,5.45,0,0,0,1.32-1.42,5.08,5.08,0,0,1-1.52.42A2.72,2.72,0,0,0,18.1,6.73a5.09,5.09,0,0,1-1.68.65,2.64,2.64,0,0,0-1.94-.91,2.68,2.68,0,0,0-2.65,2.76,3,3,0,0,0,.07.64,7.47,7.47,0,0,1-5.47-3,3,3,0,0,0,.82,3.79,2.54,2.54,0,0,1-1.2-.37v0a2.82,2.82,0,0,0,2.13,2.79,2.51,2.51,0,0,1-.7.09,2.42,2.42,0,0,1-.5-.05,2.69,2.69,0,0,0,2.48,2,5.12,5.12,0,0,1-3.29,1.2,5,5,0,0,1-.63,0A7.15,7.15,0,0,0,9.6,17.54C14.48,17.54,17.15,13.3,17.15,9.61Z"/><path d="M24,12A12,12,0,1,0,12,24,12,12,0,0,0,24,12ZM1.09,12A10.91,10.91,0,1,1,12,22.91,10.91,10.91,0,0,1,1.09,12Z"/>
</g>
</defs>

    <use x="0" y="0" xlink:href="#fb" />
    <use x="0" y="24" xlink:href="#gp" />
    <use x="0" y="48" xlink:href="#ln" />
    <use x="0" y="72" xlink:href="#tw" />
    <use x="0" y="96" xlink:href="#clock" />
    <use x="0" y="120" xlink:href="#fb" fill="red"/>
    <use x="0" y="144" xlink:href="#gp" fill="blue"/>
    <use x="0" y="168" xlink:href="#ln" fill="green"/>
    <use x="0" y="192" xlink:href="#tw" fill="red"/>
    <use x="0" y="216" xlink:href="#clock" fill="red"/>

</svg>